<?xml version="1.0" standalone="no"?>
<!DOCTYPE svg PUBLIC "-//W3C//DTD SVG 20010904//EN"
 "http://www.w3.org/TR/2001/REC-SVG-20010904/DTD/svg10.dtd">
<svg version="1.0" xmlns="http://www.w3.org/2000/svg"
 width="920.000000pt" height="920.000000pt" viewBox="0 0 920.000000 920.000000"
 preserveAspectRatio="xMidYMid meet">
<metadata>
Created by potrace 1.14, written by Peter Selinger 2001-2017
</metadata>
<g transform="translate(0.000000,920.000000) scale(0.100000,-0.100000)"
fill="#000000" stroke="none">
<path d="M4129 8716 c-2 -2 -42 -9 -89 -16 -47 -6 -110 -15 -140 -20 -30 -5
-89 -14 -130 -21 -41 -6 -97 -17 -125 -24 -27 -8 -97 -26 -155 -41 -224 -57
-472 -141 -645 -219 -257 -115 -398 -190 -572 -302 -94 -60 -356 -248 -401
-287 -15 -13 -63 -54 -107 -92 -199 -170 -464 -455 -627 -674 -40 -55 -198
-290 -198 -295 0 -3 -22 -40 -48 -83 -40 -63 -189 -357 -222 -437 -49 -120
-92 -229 -105 -270 -8 -27 -19 -59 -24 -70 -14 -31 -41 -126 -41 -141 0 -8 -4
-22 -9 -32 -17 -32 -63 -237 -101 -447 -31 -177 -35 -254 -35 -655 0 -398 6
-502 35 -655 5 -27 16 -90 25 -140 9 -49 20 -103 25 -120 5 -16 21 -77 35
-135 44 -173 99 -332 195 -565 5 -11 45 -96 91 -190 150 -310 391 -669 612
-913 91 -100 309 -315 392 -386 44 -38 91 -78 105 -90 53 -46 324 -239 416
-297 90 -57 263 -159 270 -159 1 0 65 -29 141 -66 159 -75 147 -70 278 -122
211 -85 317 -119 492 -161 71 -17 142 -35 158 -40 27 -8 65 -16 250 -52 149
-28 268 -34 685 -34 417 0 536 6 685 34 185 36 223 44 250 52 38 11 187 48
240 59 127 27 469 159 703 271 68 32 125 59 126 59 7 0 179 101 267 157 95 60
366 253 417 297 15 13 63 54 107 92 108 94 313 298 420 419 211 239 444 591
584 880 46 94 86 179 91 190 71 172 90 223 90 237 0 9 4 19 9 23 5 3 13 20 17
37 3 18 10 39 14 48 8 17 32 93 48 155 33 127 43 166 56 225 8 36 20 92 26
125 6 33 15 80 20 105 28 137 35 262 35 660 0 398 -5 501 -35 655 -5 28 -16
88 -25 135 -9 47 -20 101 -25 120 -32 129 -44 174 -66 246 -13 44 -24 87 -24
95 0 8 -4 19 -9 25 -4 5 -16 34 -25 64 -14 45 -62 169 -106 275 -37 87 -182
375 -222 437 -26 43 -48 80 -48 82 0 8 -157 237 -236 343 -168 226 -407 473
-694 717 -112 96 -444 321 -605 411 -243 136 -593 281 -870 360 -33 9 -71 21
-85 25 -14 4 -56 15 -95 25 -38 9 -92 22 -120 30 -46 12 -79 18 -262 45 -38 6
-110 17 -161 25 -71 12 -187 15 -505 15 -228 0 -416 -2 -418 -4z m786 -146
c158 -8 266 -20 358 -40 26 -5 68 -14 95 -20 157 -32 205 -43 277 -66 44 -13
84 -24 90 -24 5 0 39 -11 75 -24 36 -12 90 -31 120 -40 30 -10 64 -21 75 -26
11 -4 52 -20 90 -36 112 -44 170 -70 340 -156 88 -45 170 -86 182 -92 13 -6
23 -14 23 -18 0 -5 5 -8 11 -8 32 0 356 -222 509 -348 266 -219 508 -473 701
-732 183 -246 409 -650 488 -870 7 -19 17 -44 22 -55 14 -31 60 -158 66 -180
2 -11 8 -29 13 -40 5 -11 16 -47 25 -80 10 -33 23 -80 30 -105 7 -25 16 -56
18 -70 3 -14 13 -56 22 -95 70 -300 105 -739 86 -1065 -12 -190 -31 -368 -52
-480 -25 -129 -66 -314 -78 -350 -5 -14 -17 -52 -26 -85 -27 -94 -87 -270
-104 -303 -5 -9 -28 -63 -51 -119 -82 -200 -200 -417 -370 -678 -23 -35 -78
-114 -90 -128 -6 -6 -42 -52 -81 -102 -188 -237 -410 -459 -642 -643 -23 -19
-52 -42 -65 -53 -166 -141 -579 -388 -817 -489 -271 -115 -450 -178 -640 -224
-146 -36 -270 -63 -320 -71 -22 -3 -78 -13 -125 -21 -47 -8 -202 -20 -345 -28
-222 -12 -299 -12 -525 0 -146 7 -303 20 -350 28 -47 8 -103 18 -125 21 -22 3
-58 10 -80 15 -22 5 -71 17 -110 25 -220 49 -455 121 -563 171 -29 13 -59 24
-67 24 -7 0 -17 5 -20 10 -3 6 -13 10 -20 10 -29 0 -303 131 -403 192 -34 21
-64 38 -67 38 -19 0 -387 244 -427 283 -7 7 -31 26 -53 42 -153 112 -439 386
-589 565 -90 107 -223 281 -263 346 -7 10 -50 78 -95 149 -163 258 -311 581
-409 895 -46 148 -47 151 -64 225 -8 39 -21 88 -27 110 -5 22 -14 63 -18 90
-5 28 -18 113 -31 190 -21 129 -23 172 -23 550 -1 419 1 443 44 690 32 177 94
421 142 555 10 30 28 80 38 110 69 205 215 504 359 735 94 150 272 395 342
470 21 22 51 57 67 78 77 97 399 397 527 492 22 16 46 35 53 42 49 48 322 226
464 304 114 61 377 189 453 219 117 46 213 81 250 90 17 4 57 17 90 28 90 31
224 70 280 81 54 11 173 36 245 52 198 42 674 60 1065 39z"/>
<path d="M4260 8444 c-208 -15 -382 -38 -490 -64 -19 -5 -66 -16 -105 -25 -38
-9 -86 -20 -105 -25 -19 -5 -64 -16 -100 -25 -62 -16 -193 -57 -235 -75 -11
-5 -56 -21 -100 -35 -88 -30 -105 -37 -404 -177 -35 -16 -98 -51 -140 -77 -42
-26 -83 -51 -91 -55 -8 -4 -24 -12 -35 -19 -64 -38 -101 -62 -105 -67 -3 -3
-70 -53 -150 -110 -123 -88 -335 -266 -429 -360 -108 -107 -276 -299 -370
-423 -227 -297 -432 -664 -536 -957 -15 -41 -33 -93 -42 -115 -8 -22 -19 -49
-23 -60 -8 -19 -13 -40 -64 -230 -34 -126 -54 -219 -65 -300 -6 -38 -17 -113
-25 -165 -40 -257 -40 -730 0 -980 8 -52 20 -126 25 -165 11 -82 37 -204 54
-260 7 -22 18 -65 25 -95 16 -68 33 -125 66 -215 26 -70 31 -84 54 -140 6 -16
19 -50 27 -75 8 -25 51 -118 94 -207 43 -89 79 -165 79 -169 0 -3 10 -20 22
-37 13 -18 31 -48 42 -67 10 -19 21 -37 25 -40 3 -3 15 -21 25 -40 11 -19 22
-37 25 -40 4 -3 15 -22 26 -43 22 -42 265 -369 299 -402 12 -12 64 -68 116
-125 117 -129 89 -101 257 -253 79 -70 205 -173 280 -228 76 -55 146 -106 155
-114 9 -7 36 -24 60 -38 24 -13 66 -38 93 -55 105 -64 145 -85 300 -161 194
-95 237 -114 295 -134 25 -9 97 -34 160 -57 109 -40 181 -62 260 -81 81 -19
119 -29 190 -47 67 -17 162 -34 360 -62 36 -6 163 -15 283 -21 221 -11 568 -1
717 21 36 5 112 17 170 25 58 9 141 25 185 37 79 20 112 28 190 46 96 23 288
85 370 121 11 4 38 14 60 21 95 30 466 213 575 284 19 13 62 38 95 56 33 18
62 36 65 39 3 4 64 49 135 100 136 98 327 258 449 377 15 14 196 211 235 254
44 50 255 328 280 370 11 19 30 51 41 70 25 44 40 67 65 105 43 64 235 444
235 464 0 6 4 19 9 29 6 9 22 51 36 92 15 41 36 98 47 125 23 55 29 75 58 180
60 224 80 306 80 333 0 17 4 52 10 79 72 368 72 870 0 1278 -31 178 -32 178
-78 355 -30 114 -60 212 -80 260 -6 14 -27 70 -48 125 -73 199 -180 411 -312
623 -107 172 -289 418 -383 517 -31 33 -81 87 -110 119 -80 89 -131 137 -274
260 -154 134 -461 359 -535 393 -8 3 -49 27 -90 53 -74 45 -127 72 -285 145
-161 74 -181 83 -260 110 -44 14 -89 30 -100 35 -42 18 -173 59 -235 75 -36 9
-81 20 -100 25 -19 5 -66 16 -105 25 -38 9 -86 20 -105 25 -31 8 -111 21 -310
50 -84 13 -411 30 -520 29 -47 -1 -164 -8 -260 -15z m257 -266 c4 -7 13 -60
20 -118 30 -241 50 -402 69 -546 l6 -51 -57 -11 c-32 -7 -71 -12 -86 -12 -32
0 -34 5 -43 100 -24 230 -41 318 -60 299 -2 -2 -30 -53 -61 -114 -31 -60 -64
-116 -73 -122 -17 -14 -132 -18 -132 -5 0 4 -21 30 -47 57 -25 28 -64 70 -85
93 -62 68 -62 66 -29 -213 6 -49 14 -102 17 -117 5 -24 1 -30 -22 -38 -15 -6
-53 -13 -84 -17 l-58 -6 -11 69 c-12 72 -26 182 -40 319 -5 44 -14 109 -20
145 -5 36 -13 95 -16 132 l-5 67 37 10 c21 6 53 11 72 11 38 0 32 6 191 -171
104 -116 147 -159 157 -159 4 0 29 42 55 93 111 216 156 292 179 304 31 17
116 17 126 1z m665 -51 c31 -7 60 -15 63 -19 4 -3 2 -30 -3 -60 -11 -52 -35
-192 -52 -298 -24 -144 -42 -250 -52 -302 l-11 -58 -46 1 c-25 0 -62 6 -81 12
-34 12 -35 14 -32 57 2 45 24 177 42 258 6 23 10 54 10 69 0 26 20 138 40 231
6 23 10 57 10 75 0 52 10 55 112 34z m681 -172 c52 -23 55 -27 71 -83 9 -32
16 -67 16 -77 0 -10 4 -32 9 -49 9 -30 33 -139 52 -236 22 -115 19 -107 36
-85 8 11 26 45 40 75 50 108 90 196 108 237 23 53 40 59 93 33 23 -11 53 -25
66 -30 23 -8 23 -11 12 -42 -7 -18 -22 -53 -33 -78 -11 -25 -59 -128 -105
-230 -157 -345 -150 -330 -174 -330 -13 0 -25 4 -28 9 -3 5 -18 12 -33 16 -41
10 -62 33 -69 74 -3 20 -11 63 -19 96 -7 33 -18 87 -25 120 -7 33 -19 92 -27
130 -8 39 -17 80 -19 93 -7 35 -28 26 -48 -20 -10 -24 -35 -79 -56 -123 -20
-44 -49 -108 -65 -142 -16 -35 -33 -63 -37 -63 -16 0 -112 43 -130 57 -15 13
-14 19 9 71 40 91 63 142 98 217 18 39 40 88 50 110 16 36 35 78 107 233 11
23 26 42 34 42 7 0 38 -11 67 -25z m-2716 -57 c13 -17 78 -136 165 -306 l71
-137 1 -90 c0 -68 -4 -98 -17 -123 -56 -104 -190 -182 -312 -182 -105 0 -178
42 -243 138 -21 31 -45 71 -54 87 -8 17 -41 80 -73 140 -32 61 -69 130 -82
154 -12 24 -21 47 -18 51 2 4 34 21 70 39 77 38 80 37 123 -47 123 -243 178
-337 213 -366 64 -54 185 -19 219 63 18 44 5 84 -87 261 -103 198 -106 203
-122 222 -19 24 -3 41 68 78 65 34 66 34 78 18z m3938 -689 c61 -57 63 -66 27
-149 -8 -19 -18 -44 -22 -55 -5 -11 -27 -67 -50 -125 -23 -58 -52 -132 -65
-165 -13 -33 -41 -105 -63 -160 -22 -55 -43 -108 -46 -117 -9 -29 -28 -21 -88
37 -57 54 -66 71 -50 91 5 5 15 28 22 52 l14 43 -60 54 c-32 29 -79 71 -104
94 -25 22 -50 41 -56 41 -5 0 -34 -11 -63 -25 -30 -15 -57 -22 -65 -18 -24 14
-116 102 -116 111 0 5 46 30 103 57 56 26 156 74 222 105 66 31 153 72 194 91
41 19 97 46 125 60 28 15 59 27 68 28 9 0 42 -22 73 -50z m-2170 11 c269 -43
382 -72 610 -154 111 -40 129 -48 265 -116 171 -85 255 -139 460 -291 77 -57
206 -170 249 -218 13 -14 51 -56 85 -92 33 -36 71 -78 83 -92 27 -32 153 -205
153 -210 0 -2 24 -40 54 -85 45 -69 176 -318 176 -336 0 -3 11 -29 24 -58 42
-93 95 -264 130 -423 43 -192 56 -324 56 -553 0 -283 -24 -458 -97 -722 -61
-219 -178 -482 -292 -655 -28 -43 -51 -80 -51 -83 0 -2 -40 -57 -89 -122 -176
-231 -403 -449 -621 -594 -130 -87 -379 -225 -465 -257 -11 -4 -38 -15 -60
-24 -92 -39 -136 -55 -177 -65 -18 -5 -58 -16 -88 -25 -106 -31 -206 -55 -280
-65 -41 -6 -106 -17 -145 -23 -93 -16 -577 -16 -670 0 -38 6 -106 17 -150 23
-76 11 -150 29 -275 65 -30 9 -70 20 -88 25 -33 8 -72 22 -122 42 -14 6 -34
14 -45 19 -123 49 -176 74 -325 157 -266 148 -431 278 -665 523 -140 147 -318
401 -426 609 -15 29 -59 129 -59 134 0 3 -11 29 -24 58 -26 58 -65 170 -91
263 -9 33 -20 74 -25 90 -10 33 -24 103 -47 235 -9 54 -17 181 -20 347 -5 263
0 339 39 533 36 183 92 374 144 488 13 29 24 55 24 58 0 2 29 64 65 136 58
117 238 401 297 469 13 15 36 42 51 60 94 114 287 294 428 399 52 39 99 74
104 78 51 39 193 121 315 182 136 68 154 76 265 116 190 68 261 89 365 109 47
9 103 20 125 25 51 11 194 30 265 34 106 7 496 -3 565 -14z m-2764 -321 c108
-111 201 -200 206 -198 6 2 58 49 117 104 59 55 112 101 117 103 11 4 93 -77
102 -100 4 -12 -7 -28 -36 -54 -23 -20 -99 -93 -170 -161 -70 -67 -133 -123
-140 -123 -19 0 -517 503 -517 522 0 17 95 108 113 108 7 0 100 -91 208 -201z
m-784 -1940 c45 -25 103 -87 103 -111 0 -9 5 -20 10 -23 6 -3 10 -35 10 -71 0
-36 -4 -64 -10 -64 -5 0 -10 -9 -10 -19 0 -11 -7 -26 -15 -35 -8 -8 -15 -18
-15 -22 0 -15 -65 -64 -85 -64 -11 0 -26 -5 -33 -12 -14 -14 -135 -11 -140 3
-2 5 -14 9 -26 9 -25 0 -90 63 -101 98 -3 12 -11 22 -16 22 -5 0 -9 35 -9 78
0 99 15 130 89 188 55 43 57 44 133 44 60 0 86 -5 115 -21z m6614 -8 c45 -29
74 -59 97 -98 18 -34 15 -153 -5 -194 -26 -52 -83 -109 -109 -109 -13 0 -26
-4 -29 -10 -3 -5 -37 -10 -75 -10 -38 0 -72 5 -75 10 -3 6 -14 10 -24 10 -20
0 -81 51 -81 67 0 6 -7 13 -15 17 -8 3 -15 17 -15 31 0 14 -4 25 -10 25 -6 0
-10 28 -10 65 0 37 4 65 10 65 6 0 10 10 10 23 0 28 85 117 112 117 10 0 18 5
18 10 0 6 33 10 78 10 69 0 83 -3 123 -29z m-6377 -1146 c19 -38 19 -39 0 -72
-10 -18 -54 -80 -97 -138 -65 -87 -77 -108 -67 -120 7 -8 19 -15 28 -15 8 0
40 -7 71 -16 62 -17 92 -25 165 -44 43 -12 50 -18 67 -58 12 -26 16 -49 11
-54 -9 -9 -236 -92 -297 -108 -16 -5 -70 -23 -118 -40 -48 -17 -93 -30 -99
-28 -12 4 -49 98 -43 108 2 4 64 26 137 50 73 24 135 46 137 47 19 13 -65 47
-147 60 -24 4 -39 15 -53 37 -27 45 -24 63 24 125 55 72 79 111 68 111 -9 0
-67 -18 -96 -30 -11 -5 -29 -11 -40 -13 -11 -3 -45 -15 -75 -26 -30 -12 -60
-21 -67 -21 -16 0 -43 57 -43 90 0 23 7 28 53 44 28 10 59 20 67 23 106 40
377 131 385 129 6 -1 19 -19 29 -41z m6109 4 c49 -13 99 -58 122 -109 13 -30
23 -39 34 -35 9 4 45 12 81 20 36 8 72 17 81 20 27 10 30 -8 12 -69 -18 -65
-18 -65 -136 -91 -66 -14 -80 -21 -88 -42 -19 -49 -16 -52 89 -84 24 -7 45
-16 48 -21 7 -10 -13 -80 -28 -101 -12 -16 -17 -15 -83 6 -66 23 -142 46 -330
104 -112 35 -110 34 -107 84 1 24 7 48 11 53 5 6 18 43 30 82 49 161 133 220
264 183z m-345 -559 c17 -11 32 -22 32 -26 0 -7 -67 -131 -86 -159 -8 -11 -14
-26 -14 -35 0 -17 53 -50 81 -50 11 0 23 8 26 18 5 14 79 139 88 150 6 6 76
-30 81 -43 3 -7 -15 -52 -40 -98 -25 -47 -46 -87 -46 -91 0 -12 82 -47 99 -41
9 3 27 24 39 48 77 149 78 149 138 121 33 -16 45 -46 25 -58 -5 -3 -18 -23
-29 -43 -10 -21 -28 -54 -39 -73 -11 -19 -35 -62 -53 -95 -42 -77 -47 -82 -68
-69 -9 6 -47 27 -84 47 -38 21 -98 53 -135 74 -38 20 -102 54 -143 76 -95 50
-102 56 -95 78 4 10 35 69 71 130 35 61 64 114 64 117 0 10 33 42 44 42 6 0
26 -9 44 -20z m-5429 -203 c100 -154 143 -229 138 -242 -7 -18 -65 -48 -81
-42 -7 3 -36 44 -65 91 -31 51 -59 86 -69 86 -9 0 -31 -10 -49 -22 -39 -28
-38 -36 23 -125 24 -35 44 -70 44 -77 0 -16 -80 -61 -89 -50 -3 5 -27 41 -53
80 -25 40 -51 75 -57 78 -13 9 -91 -40 -91 -57 0 -7 16 -36 35 -66 19 -29 35
-56 35 -61 0 -5 3 -10 8 -12 4 -1 15 -17 25 -35 l17 -31 -34 -21 c-18 -12 -40
-21 -49 -21 -12 0 -97 108 -97 124 0 2 -23 38 -51 80 -28 42 -49 84 -47 93 4
21 425 283 453 282 13 0 32 -19 54 -52z m5164 -265 c15 -15 27 -32 27 -38 0
-5 -23 -36 -50 -69 l-50 -59 24 -21 c13 -11 65 -54 116 -95 51 -41 111 -92
134 -112 22 -21 44 -38 49 -38 4 0 7 -7 7 -15 0 -8 -3 -15 -7 -15 -5 0 -19
-16 -32 -35 -13 -19 -31 -35 -40 -35 -9 0 -35 17 -57 38 -60 54 -221 184 -254
205 -28 18 -29 18 -50 -5 -12 -13 -33 -38 -47 -55 -14 -18 -34 -33 -44 -33
-21 0 -79 47 -79 64 0 11 25 42 175 218 44 51 87 101 95 110 21 26 52 22 83
-10z m-4799 -224 c92 -98 116 -135 136 -213 11 -43 10 -58 -5 -110 -15 -49
-29 -70 -79 -120 -50 -50 -72 -64 -124 -80 -56 -16 -69 -17 -115 -5 -29 7 -65
20 -82 29 -43 22 -225 202 -225 222 0 9 64 77 143 151 210 200 230 217 248
218 10 0 56 -41 103 -92z m4352 -240 c17 -18 66 -78 109 -133 43 -55 105 -133
137 -173 32 -40 58 -77 58 -82 0 -11 -51 -60 -65 -61 -28 -3 -67 4 -140 26
-203 59 -255 72 -255 62 0 -3 35 -50 79 -105 71 -90 101 -132 101 -146 0 -2
-18 -18 -40 -36 -26 -21 -44 -29 -54 -23 -14 8 -43 43 -182 218 -43 55 -81
102 -84 105 -3 3 -21 24 -39 48 l-34 43 24 26 c13 14 34 29 45 33 23 9 37 6
217 -44 95 -27 168 -46 172 -46 15 0 -4 31 -78 122 -46 57 -86 110 -89 119 -6
16 4 29 52 62 32 22 31 22 66 -15z m-3906 -154 c22 -15 40 -33 40 -41 0 -9
-30 -56 -67 -107 -79 -107 -75 -102 -111 -146 -15 -19 -52 -68 -81 -107 -29
-40 -58 -73 -65 -73 -25 0 -86 51 -86 72 0 16 309 428 321 428 5 0 27 -12 49
-26z m3362 -239 c12 -24 20 -46 17 -48 -2 -2 -48 -25 -101 -52 -54 -26 -98
-53 -98 -60 0 -16 29 -73 41 -81 5 -3 48 13 96 36 47 22 91 39 98 36 7 -2 20
-21 30 -42 21 -45 22 -44 -89 -95 -47 -21 -75 -40 -76 -50 0 -23 28 -76 45
-82 7 -3 55 14 105 39 50 24 97 44 105 44 17 0 45 -44 45 -72 0 -20 -22 -34
-151 -95 -83 -40 -156 -73 -163 -73 -13 0 -96 143 -96 165 0 6 -4 15 -10 21
-5 5 -41 72 -80 149 -47 95 -66 143 -59 150 13 13 290 152 307 154 7 1 22 -19
34 -44z m-2892 -32 c97 -50 166 -163 158 -258 -4 -48 -23 -55 -77 -28 -43 21
-51 31 -51 60 0 66 -84 133 -165 133 -60 0 -97 -22 -137 -81 -61 -91 -20 -200
91 -237 47 -16 65 -15 115 8 l43 21 51 -23 c29 -13 52 -28 52 -34 0 -16 -51
-59 -95 -80 -28 -13 -62 -19 -115 -19 -94 0 -169 33 -231 103 -52 60 -69 101
-69 171 0 134 93 261 214 292 56 15 160 1 216 -28z m2304 -223 c50 -24 116
-86 116 -109 0 -10 -15 -21 -40 -29 -57 -18 -78 -15 -112 13 -24 20 -40 25
-84 25 -87 0 -141 -39 -164 -116 -32 -108 90 -239 191 -205 60 20 96 48 118
93 18 38 28 46 73 61 28 9 55 14 60 11 14 -9 9 -71 -11 -116 -21 -49 -78 -111
-125 -135 -39 -20 -122 -43 -159 -43 -151 -1 -286 142 -287 302 0 54 35 140
75 182 33 36 98 71 160 87 46 12 140 2 189 -21z m-1634 -25 c12 -11 21 -36 25
-74 3 -31 10 -83 15 -116 19 -120 39 -261 45 -322 6 -60 5 -63 -16 -63 -12 0
-40 5 -61 12 -41 12 -58 36 -58 83 0 26 -7 29 -138 61 l-73 18 -38 -42 -38
-42 -54 16 c-30 9 -55 17 -57 19 -7 7 73 128 135 205 15 19 118 160 163 224
35 48 35 48 83 43 26 -2 56 -12 67 -22z m488 -69 c7 -8 4 -300 -4 -362 -9 -65
7 -74 132 -74 l105 0 -3 -57 -3 -58 -164 3 c-197 4 -214 9 -206 54 3 18 10
136 14 261 6 180 11 231 22 238 15 10 95 6 107 -5z"/>
<path d="M6788 6979 c-54 -27 -98 -53 -98 -58 0 -14 121 -121 137 -121 7 0 16
12 19 28 4 15 10 32 14 37 8 12 60 147 60 158 0 16 -41 3 -132 -44z"/>
<path d="M7598 3669 c-14 -13 -33 -46 -43 -73 -17 -48 -17 -50 1 -63 10 -8 30
-16 44 -19 14 -3 35 -10 48 -15 13 -5 27 -9 32 -9 18 0 42 63 44 111 1 57 -14
77 -65 85 -28 5 -41 1 -61 -17z"/>
<path d="M2159 2449 c-95 -87 -179 -172 -179 -181 0 -17 74 -80 115 -99 55
-26 84 -24 136 9 53 34 63 46 78 94 9 28 9 46 0 76 -12 43 -83 132 -104 132
-7 0 -28 -14 -46 -31z"/>
<path d="M3735 1414 c-55 -77 -52 -88 33 -99 50 -7 52 -6 52 18 0 68 -14 147
-26 147 -7 0 -33 -30 -59 -66z"/>
</g>
</svg>
